# This file uses centimeters as units for non-parametric coordinates.

mtllib PartePA1.mtl
g default
v -4.000000 -0.101805 12.900000
v -3.000000 -0.101805 12.900000
v -4.000000 5.701805 12.900000
v -3.000000 5.701805 12.900000
v -3.000000 -0.101805 11.900000
v -3.000000 5.701805 11.900000
v -4.000000 5.701805 11.900000
v -4.000000 -0.101805 11.900000
v -4.183230 5.557666 13.000000
v -2.872153 5.557666 13.000000
v -4.183230 5.557666 12.000000
v -2.872153 5.557666 12.000000
v -2.938902 6.565720 13.000000
v -0.969897 6.565720 13.000000
v -2.938902 7.103446 13.000000
v -0.969897 7.103446 13.000000
v -2.938902 7.103446 12.000000
v -0.969897 7.103446 12.000000
v -2.938902 6.565720 12.000000
v -0.969897 6.565720 12.000000
v -4.512194 5.548321 13.000000
v -2.543189 5.548321 13.000000
v -4.512194 6.086047 13.000000
v -2.543189 6.086047 13.000000
v -4.512194 6.086047 12.000000
v -2.543189 6.086047 12.000000
v -4.512194 5.548321 12.000000
v -2.543189 5.548321 12.000000
v -3.725548 6.106437 13.000000
v -1.756543 6.106437 13.000000
v -3.725548 6.644163 13.000000
v -1.756543 6.644163 13.000000
v -3.725548 6.644163 12.000000
v -1.756543 6.644163 12.000000
v -3.725548 6.106437 12.000000
v -1.756543 6.106437 12.000000
v -1.617586 7.088953 13.000000
v 1.117587 7.088953 13.000000
v -1.617586 7.626680 13.000000
v 1.117587 7.626680 13.000000
v -1.617586 7.626680 12.000000
v 1.117587 7.626680 12.000000
v -1.617586 7.088953 12.000000
v 1.117587 7.088953 12.000000
v 2.438902 6.565720 12.000000
v 0.469897 6.565720 12.000000
v 2.438902 7.103446 12.000000
v 0.469897 7.103446 12.000000
v 2.438902 7.103446 13.000000
v 0.469897 7.103446 13.000000
v 2.438902 6.565720 13.000000
v 0.469897 6.565720 13.000000
v 4.012194 5.548321 12.000000
v 2.043189 5.548321 12.000000
v 4.012194 6.086047 12.000000
v 2.043189 6.086047 12.000000
v 4.012194 6.086047 13.000000
v 2.043189 6.086047 13.000000
v 4.012194 5.548321 13.000000
v 2.043189 5.548321 13.000000
v 3.225548 6.106437 12.000000
v 1.256543 6.106437 12.000000
v 3.225548 6.644163 12.000000
v 1.256543 6.644163 12.000000
v 3.225548 6.644163 13.000000
v 1.256543 6.644163 13.000000
v 3.225548 6.106437 13.000000
v 1.256543 6.106437 13.000000
v 2.372153 5.557666 13.000000
v 3.683229 5.557666 13.000000
v 2.372153 5.557666 12.000000
v 3.683229 5.557666 12.000000
v 2.500000 -0.101805 12.900000
v 3.500000 -0.101805 12.900000
v 2.500000 -0.101805 11.900000
v 3.500000 -0.101805 11.900000
v 2.500000 5.701805 12.900000
v 3.500000 5.701805 12.900000
v 3.500000 5.701805 11.900000
v 2.500000 5.701805 11.900000
vt 0.378759 0.000000
vt 0.621241 0.000000
vt 0.621241 1.000000
vt 0.378759 1.000000
vt 0.618735 1.000000
vt 0.381265 1.000000
vt 0.381265 0.000000
vt 0.618735 0.000000
vt 0.381265 0.000000
vt 0.618735 0.000000
vt 0.618735 1.000000
vt 0.381265 1.000000
vt 0.379594 0.000000
vt 0.620406 0.000000
vt 0.620406 1.000000
vt 0.379594 1.000000
vt 0.375000 0.302000
vt 0.625000 0.302000
vt 0.625000 0.552000
vt 0.375000 0.552000
vt 0.000000 0.008033
vt 1.000000 0.008033
vt 1.000000 0.315968
vt 0.000000 0.315968
vt 0.000000 0.167071
vt 1.000000 0.167071
vt 1.000000 0.832929
vt 0.000000 0.832929
vt 1.000000 0.479059
vt 0.000000 0.479059
vt 0.000000 0.171124
vt 1.000000 0.171124
vt 0.375000 0.750000
vt 0.625000 0.750000
vt 0.625000 1.000000
vt 0.375000 1.000000
vt 0.000000 0.011131
vt 1.000000 0.011131
vt 1.000000 0.473596
vt 0.000000 0.473596
vt 0.000000 0.368041
vt 1.000000 0.368041
vt 1.000000 0.830505
vt 0.000000 0.830505
vt 0.000000 0.008033
vt 1.000000 0.008033
vt 1.000000 0.315968
vt 0.000000 0.315968
vt 0.000000 0.167071
vt 1.000000 0.167071
vt 1.000000 0.832929
vt 0.000000 0.832929
vt 1.000000 0.479059
vt 0.000000 0.479059
vt 0.000000 0.171124
vt 1.000000 0.171124
vt 0.375000 0.750000
vt 0.625000 0.750000
vt 0.625000 1.000000
vt 0.375000 1.000000
vt 0.000000 0.011131
vt 1.000000 0.011131
vt 1.000000 0.473596
vt 0.000000 0.473596
vt 0.000000 0.368041
vt 1.000000 0.368041
vt 1.000000 0.830505
vt 0.000000 0.830505
vt 0.000000 0.008033
vt 1.000000 0.008033
vt 1.000000 0.315968
vt 0.000000 0.315968
vt 0.000000 0.167071
vt 1.000000 0.167071
vt 1.000000 0.832929
vt 0.000000 0.832929
vt 1.000000 0.479059
vt 0.000000 0.479059
vt 0.000000 0.171124
vt 1.000000 0.171124
vt 0.375000 0.750000
vt 0.625000 0.750000
vt 0.625000 1.000000
vt 0.375000 1.000000
vt 0.000000 0.011131
vt 1.000000 0.011131
vt 1.000000 0.473596
vt 0.000000 0.473596
vt 0.000000 0.368041
vt 1.000000 0.368041
vt 1.000000 0.830505
vt 0.000000 0.830505
vt 0.000000 0.008033
vt 1.000000 0.008033
vt 1.000000 0.315968
vt 0.000000 0.315968
vt 0.000000 0.167071
vt 1.000000 0.167071
vt 1.000000 0.832929
vt 0.000000 0.832929
vt 1.000000 0.479059
vt 0.000000 0.479059
vt 0.000000 0.171124
vt 1.000000 0.171124
vt 0.375000 0.750000
vt 0.625000 0.750000
vt 0.625000 1.000000
vt 0.375000 1.000000
vt 0.000000 0.011131
vt 1.000000 0.011131
vt 1.000000 0.473596
vt 0.000000 0.473596
vt 0.000000 0.368041
vt 1.000000 0.368041
vt 1.000000 0.830505
vt 0.000000 0.830505
vt 0.000000 0.008033
vt 1.000000 0.008033
vt 1.000000 0.315968
vt 0.000000 0.315968
vt 0.000000 0.167071
vt 1.000000 0.167071
vt 1.000000 0.832929
vt 0.000000 0.832929
vt 1.000000 0.479059
vt 0.000000 0.479059
vt 0.000000 0.171124
vt 1.000000 0.171124
vt 0.375000 0.750000
vt 0.625000 0.750000
vt 0.625000 1.000000
vt 0.375000 1.000000
vt 0.000000 0.011131
vt 1.000000 0.011131
vt 1.000000 0.473596
vt 0.000000 0.473596
vt 0.000000 0.368041
vt 1.000000 0.368041
vt 1.000000 0.830505
vt 0.000000 0.830505
vt 0.000000 0.008033
vt 1.000000 0.008033
vt 1.000000 0.315968
vt 0.000000 0.315968
vt 0.000000 0.167071
vt 1.000000 0.167071
vt 1.000000 0.832929
vt 0.000000 0.832929
vt 1.000000 0.479059
vt 0.000000 0.479059
vt 0.000000 0.171124
vt 1.000000 0.171124
vt 0.375000 0.750000
vt 0.625000 0.750000
vt 0.625000 1.000000
vt 0.375000 1.000000
vt 0.000000 0.011131
vt 1.000000 0.011131
vt 1.000000 0.473596
vt 0.000000 0.473596
vt 0.000000 0.368041
vt 1.000000 0.368041
vt 1.000000 0.830505
vt 0.000000 0.830505
vt 0.000000 0.008033
vt 1.000000 0.008033
vt 1.000000 0.315968
vt 0.000000 0.315968
vt 0.000000 0.167071
vt 1.000000 0.167071
vt 1.000000 0.832929
vt 0.000000 0.832929
vt 1.000000 0.479059
vt 0.000000 0.479059
vt 0.000000 0.171124
vt 1.000000 0.171124
vt 0.375000 0.750000
vt 0.625000 0.750000
vt 0.625000 1.000000
vt 0.375000 1.000000
vt 0.000000 0.011131
vt 1.000000 0.011131
vt 1.000000 0.473596
vt 0.000000 0.473596
vt 0.000000 0.368041
vt 1.000000 0.368041
vt 1.000000 0.830505
vt 0.000000 0.830505
vt 0.375000 0.302000
vt 0.625000 0.302000
vt 0.625000 0.552000
vt 0.375000 0.552000
vt 0.378759 0.000000
vt 0.621241 0.000000
vt 0.621241 1.000000
vt 0.378759 1.000000
vt 0.618735 1.000000
vt 0.381265 1.000000
vt 0.381265 0.000000
vt 0.618735 0.000000
vt 0.375000 0.750000
vt 0.625000 0.750000
vt 0.625000 1.000000
vt 0.375000 1.000000
vt 0.381265 0.000000
vt 0.618735 0.000000
vt 0.618735 1.000000
vt 0.381265 1.000000
vt 0.379594 0.000000
vt 0.620406 0.000000
vt 0.620406 1.000000
vt 0.379594 1.000000
vn 0.000000 0.000000 1.000000
vn 0.000000 0.000000 1.000000
vn 0.000000 0.000000 1.000000
vn 0.000000 0.000000 1.000000
vn 0.000000 0.000000 -1.000000
vn 0.000000 0.000000 -1.000000
vn 0.000000 0.000000 -1.000000
vn 0.000000 0.000000 -1.000000
vn 1.000000 0.000000 0.000000
vn 1.000000 0.000000 0.000000
vn 1.000000 0.000000 0.000000
vn 1.000000 0.000000 0.000000
vn -1.000000 0.000000 0.000000
vn -1.000000 0.000000 0.000000
vn -1.000000 0.000000 0.000000
vn -1.000000 0.000000 0.000000
vn 0.000000 1.000000 0.000000
vn 0.000000 1.000000 0.000000
vn 0.000000 1.000000 0.000000
vn 0.000000 1.000000 0.000000
vn 0.000000 0.000000 1.000000
vn 0.000000 0.000000 1.000000
vn 0.000000 0.000000 1.000000
vn 0.000000 0.000000 1.000000
vn 0.000000 1.000000 0.000000
vn 0.000000 1.000000 0.000000
vn 0.000000 1.000000 0.000000
vn 0.000000 1.000000 0.000000
vn 0.000000 0.000000 -1.000000
vn 0.000000 0.000000 -1.000000
vn 0.000000 0.000000 -1.000000
vn 0.000000 0.000000 -1.000000
vn 0.000000 -1.000000 0.000000
vn 0.000000 -1.000000 0.000000
vn 0.000000 -1.000000 0.000000
vn 0.000000 -1.000000 0.000000
vn 1.000000 0.000000 0.000000
vn 1.000000 0.000000 0.000000
vn 1.000000 0.000000 0.000000
vn 1.000000 0.000000 0.000000
vn -1.000000 0.000000 0.000000
vn -1.000000 0.000000 0.000000
vn -1.000000 0.000000 0.000000
vn -1.000000 0.000000 0.000000
vn 0.000000 0.000000 1.000000
vn 0.000000 0.000000 1.000000
vn 0.000000 0.000000 1.000000
vn 0.000000 0.000000 1.000000
vn 0.000000 1.000000 0.000000
vn 0.000000 1.000000 0.000000
vn 0.000000 1.000000 0.000000
vn 0.000000 1.000000 0.000000
vn 0.000000 0.000000 -1.000000
vn 0.000000 0.000000 -1.000000
vn 0.000000 0.000000 -1.000000
vn 0.000000 0.000000 -1.000000
vn 0.000000 -1.000000 0.000000
vn 0.000000 -1.000000 0.000000
vn 0.000000 -1.000000 0.000000
vn 0.000000 -1.000000 0.000000
vn 1.000000 0.000000 0.000000
vn 1.000000 0.000000 0.000000
vn 1.000000 0.000000 0.000000
vn 1.000000 0.000000 0.000000
vn -1.000000 0.000000 0.000000
vn -1.000000 0.000000 0.000000
vn -1.000000 0.000000 0.000000
vn -1.000000 0.000000 0.000000
vn 0.000000 0.000000 1.000000
vn 0.000000 0.000000 1.000000
vn 0.000000 0.000000 1.000000
vn 0.000000 0.000000 1.000000
vn 0.000000 1.000000 0.000000
vn 0.000000 1.000000 0.000000
vn 0.000000 1.000000 0.000000
vn 0.000000 1.000000 0.000000
vn 0.000000 0.000000 -1.000000
vn 0.000000 0.000000 -1.000000
vn 0.000000 0.000000 -1.000000
vn 0.000000 0.000000 -1.000000
vn 0.000000 -1.000000 0.000000
vn 0.000000 -1.000000 0.000000
vn 0.000000 -1.000000 0.000000
vn 0.000000 -1.000000 0.000000
vn 1.000000 0.000000 0.000000
vn 1.000000 0.000000 0.000000
vn 1.000000 0.000000 0.000000
vn 1.000000 0.000000 0.000000
vn -1.000000 0.000000 0.000000
vn -1.000000 0.000000 0.000000
vn -1.000000 0.000000 0.000000
vn -1.000000 0.000000 0.000000
vn 0.000000 0.000000 1.000000
vn 0.000000 0.000000 1.000000
vn 0.000000 0.000000 1.000000
vn 0.000000 0.000000 1.000000
vn 0.000000 1.000000 0.000000
vn 0.000000 1.000000 0.000000
vn 0.000000 1.000000 0.000000
vn 0.000000 1.000000 0.000000
vn 0.000000 0.000000 -1.000000
vn 0.000000 0.000000 -1.000000
vn 0.000000 0.000000 -1.000000
vn 0.000000 0.000000 -1.000000
vn 0.000000 -1.000000 0.000000
vn 0.000000 -1.000000 0.000000
vn 0.000000 -1.000000 0.000000
vn 0.000000 -1.000000 0.000000
vn 1.000000 0.000000 0.000000
vn 1.000000 0.000000 0.000000
vn 1.000000 0.000000 0.000000
vn 1.000000 0.000000 0.000000
vn -1.000000 0.000000 0.000000
vn -1.000000 0.000000 0.000000
vn -1.000000 0.000000 0.000000
vn -1.000000 0.000000 0.000000
vn 0.000000 0.000000 -1.000000
vn 0.000000 0.000000 -1.000000
vn 0.000000 0.000000 -1.000000
vn 0.000000 0.000000 -1.000000
vn 0.000000 1.000000 0.000000
vn 0.000000 1.000000 0.000000
vn 0.000000 1.000000 0.000000
vn 0.000000 1.000000 0.000000
vn 0.000000 0.000000 1.000000
vn 0.000000 0.000000 1.000000
vn 0.000000 0.000000 1.000000
vn 0.000000 0.000000 1.000000
vn 0.000000 -1.000000 0.000000
vn 0.000000 -1.000000 0.000000
vn 0.000000 -1.000000 0.000000
vn 0.000000 -1.000000 0.000000
vn -1.000000 0.000000 0.000000
vn -1.000000 0.000000 0.000000
vn -1.000000 0.000000 0.000000
vn -1.000000 0.000000 0.000000
vn 1.000000 0.000000 0.000000
vn 1.000000 0.000000 0.000000
vn 1.000000 0.000000 0.000000
vn 1.000000 0.000000 0.000000
vn 0.000000 0.000000 -1.000000
vn 0.000000 0.000000 -1.000000
vn 0.000000 0.000000 -1.000000
vn 0.000000 0.000000 -1.000000
vn 0.000000 1.000000 0.000000
vn 0.000000 1.000000 0.000000
vn 0.000000 1.000000 0.000000
vn 0.000000 1.000000 0.000000
vn 0.000000 0.000000 1.000000
vn 0.000000 0.000000 1.000000
vn 0.000000 0.000000 1.000000
vn 0.000000 0.000000 1.000000
vn 0.000000 -1.000000 0.000000
vn 0.000000 -1.000000 0.000000
vn 0.000000 -1.000000 0.000000
vn 0.000000 -1.000000 0.000000
vn -1.000000 0.000000 0.000000
vn -1.000000 0.000000 0.000000
vn -1.000000 0.000000 0.000000
vn -1.000000 0.000000 0.000000
vn 1.000000 0.000000 0.000000
vn 1.000000 0.000000 0.000000
vn 1.000000 0.000000 0.000000
vn 1.000000 0.000000 0.000000
vn 0.000000 0.000000 -1.000000
vn 0.000000 0.000000 -1.000000
vn 0.000000 0.000000 -1.000000
vn 0.000000 0.000000 -1.000000
vn 0.000000 1.000000 0.000000
vn 0.000000 1.000000 0.000000
vn 0.000000 1.000000 0.000000
vn 0.000000 1.000000 0.000000
vn 0.000000 0.000000 1.000000
vn 0.000000 0.000000 1.000000
vn 0.000000 0.000000 1.000000
vn 0.000000 0.000000 1.000000
vn 0.000000 -1.000000 0.000000
vn 0.000000 -1.000000 0.000000
vn 0.000000 -1.000000 0.000000
vn 0.000000 -1.000000 0.000000
vn -1.000000 0.000000 0.000000
vn -1.000000 0.000000 0.000000
vn -1.000000 0.000000 0.000000
vn -1.000000 0.000000 0.000000
vn 1.000000 0.000000 0.000000
vn 1.000000 0.000000 0.000000
vn 1.000000 0.000000 0.000000
vn 1.000000 0.000000 0.000000
vn 0.000000 1.000000 0.000000
vn 0.000000 1.000000 0.000000
vn 0.000000 1.000000 0.000000
vn 0.000000 1.000000 0.000000
vn 0.000000 0.000000 1.000000
vn 0.000000 0.000000 1.000000
vn 0.000000 0.000000 1.000000
vn 0.000000 0.000000 1.000000
vn 0.000000 0.000000 -1.000000
vn 0.000000 0.000000 -1.000000
vn 0.000000 0.000000 -1.000000
vn 0.000000 0.000000 -1.000000
vn 0.000000 -1.000000 0.000000
vn 0.000000 -1.000000 0.000000
vn 0.000000 -1.000000 0.000000
vn 0.000000 -1.000000 0.000000
vn 1.000000 0.000000 0.000000
vn 1.000000 0.000000 0.000000
vn 1.000000 0.000000 0.000000
vn 1.000000 0.000000 0.000000
vn -1.000000 0.000000 0.000000
vn -1.000000 0.000000 0.000000
vn -1.000000 0.000000 0.000000
vn -1.000000 0.000000 0.000000
s off
g polySurface9
usemtl lambert5SG
f 1/1/1 2/2/2 4/3/3 3/4/4
f 7/5/5 6/6/6 5/7/7 8/8/8
f 2/9/9 5/10/10 6/11/11 4/12/12
f 8/13/13 1/14/14 3/15/15 7/16/16
f 9/17/17 10/18/18 12/19/19 11/20/20
usemtl lambert6SG
f 13/21/21 14/22/22 16/23/23 15/24/24
f 15/25/25 16/26/26 18/27/27 17/28/28
f 17/29/29 18/30/30 20/31/31 19/32/32
f 19/33/33 20/34/34 14/35/35 13/36/36
f 14/37/37 20/38/38 18/39/39 16/40/40
f 19/41/41 13/42/42 15/43/43 17/44/44
f 21/45/45 22/46/46 24/47/47 23/48/48
f 23/49/49 24/50/50 26/51/51 25/52/52
f 25/53/53 26/54/54 28/55/55 27/56/56
f 27/57/57 28/58/58 22/59/59 21/60/60
f 22/61/61 28/62/62 26/63/63 24/64/64
f 27/65/65 21/66/66 23/67/67 25/68/68
f 29/69/69 30/70/70 32/71/71 31/72/72
f 31/73/73 32/74/74 34/75/75 33/76/76
f 33/77/77 34/78/78 36/79/79 35/80/80
f 35/81/81 36/82/82 30/83/83 29/84/84
f 30/85/85 36/86/86 34/87/87 32/88/88
f 35/89/89 29/90/90 31/91/91 33/92/92
f 37/93/93 38/94/94 40/95/95 39/96/96
f 39/97/97 40/98/98 42/99/99 41/100/100
f 41/101/101 42/102/102 44/103/103 43/104/104
f 43/105/105 44/106/106 38/107/107 37/108/108
f 38/109/109 44/110/110 42/111/111 40/112/112
f 43/113/113 37/114/114 39/115/115 41/116/116
f 45/117/117 46/118/118 48/119/119 47/120/120
f 47/121/121 48/122/122 50/123/123 49/124/124
f 49/125/125 50/126/126 52/127/127 51/128/128
f 51/129/129 52/130/130 46/131/131 45/132/132
f 46/133/133 52/134/134 50/135/135 48/136/136
f 51/137/137 45/138/138 47/139/139 49/140/140
f 53/141/141 54/142/142 56/143/143 55/144/144
f 55/145/145 56/146/146 58/147/147 57/148/148
f 57/149/149 58/150/150 60/151/151 59/152/152
f 59/153/153 60/154/154 54/155/155 53/156/156
f 54/157/157 60/158/158 58/159/159 56/160/160
f 59/161/161 53/162/162 55/163/163 57/164/164
f 61/165/165 62/166/166 64/167/167 63/168/168
f 63/169/169 64/170/170 66/171/171 65/172/172
f 65/173/173 66/174/174 68/175/175 67/176/176
f 67/177/177 68/178/178 62/179/179 61/180/180
f 62/181/181 68/182/182 66/183/183 64/184/184
f 67/185/185 61/186/186 63/187/187 65/188/188
usemtl lambert5SG
f 69/189/189 70/190/190 72/191/191 71/192/192
f 73/193/193 74/194/194 78/195/195 77/196/196
f 80/197/197 79/198/198 76/199/199 75/200/200
f 75/201/201 76/202/202 74/203/203 73/204/204
f 74/205/205 76/206/206 79/207/207 78/208/208
f 75/209/209 73/210/210 77/211/211 80/212/212
